<svg width="185" height="161" viewBox="0 0 185 161" fill="none" xmlns="http://www.w3.org/2000/svg">
<g clip-path="url(#clip0_620_4672)">
<g opacity="0.5" clip-path="url(#clip1_620_4672)" filter="url(#filter0_i_620_4672)">
<path d="M5.89617 156.908L116.931 156.908L116.931 141.644L5.89618 141.644L5.89617 156.908ZM20.7008 143.34L102.126 143.34L102.126 155.212L20.7008 155.212L20.7008 143.34Z" fill="#0F2C65"/>
<path d="M5.89617 156.908L116.931 156.908L116.931 141.644L5.89618 141.644L5.89617 156.908ZM20.7008 143.34L102.126 143.34L102.126 155.212L20.7008 155.212L20.7008 143.34Z" fill="#0F2C65"/>
<rect x="102.077" y="155.282" width="82.6721" height="12.1682" transform="rotate(-180 102.077 155.282)" fill="white"/>
<rect x="92.0771" y="154.187" width="63.0769" height="1.23077" transform="rotate(-180 92.0771 154.187)" fill="#003B80"/>
<rect x="92.0771" y="145.396" width="63.0769" height="1.23077" transform="rotate(-180 92.0771 145.396)" fill="#003B80"/>
<rect x="92.0771" y="152.253" width="35.3846" height="3.86813" transform="rotate(-180 92.0771 152.253)" fill="#003B80"/>
<rect x="50.5381" y="152.253" width="21.5385" height="2.46154" transform="rotate(-180 50.5381 152.253)" fill="#003B80"/>
<rect x="50.5381" y="149.088" width="21.5385" height="2.46154" transform="rotate(-180 50.5381 149.088)" fill="#003B80"/>
<path d="M92.0771 147.857L56.6925 147.857" stroke="#003B80" stroke-linecap="square"/>
<path d="M92.0771 147.33L56.6925 147.33" stroke="#003B80" stroke-linecap="square"/>
<path d="M92.0771 146.802L56.6925 146.802" stroke="#003B80" stroke-linecap="square"/>
<path d="M92.0771 146.099L29.0002 146.099" stroke="#003B80" stroke-linecap="square"/>
</g>
<g clip-path="url(#clip2_620_4672)" filter="url(#filter1_i_620_4672)">
<path d="M113.919 9.1958H5.26367V140.851H113.919V9.1958ZM99.4315 126.223H19.751V23.8242H99.4315V126.223Z" fill="#0F2C65"/>
<path d="M113.919 9.1958H5.26367V140.851H113.919V9.1958ZM99.4315 126.223H19.751V23.8242H99.4315V126.223Z" fill="#0F2C65"/>
<rect x="19.7988" y="23.2192" width="80.9006" height="104.951" fill="white"/>
<rect x="29.585" y="32.6665" width="61.7253" height="10.6154" fill="#003B80"/>
<rect x="29.585" y="108.491" width="61.7253" height="10.6154" fill="#003B80"/>
<rect x="29.585" y="49.3477" width="34.6264" height="33.3626" fill="#003B80"/>
<rect x="70.2334" y="49.3477" width="21.0769" height="21.2308" fill="#003B80"/>
<rect x="70.2334" y="76.6445" width="21.0769" height="21.2308" fill="#003B80"/>
<path d="M29.585 87.2598H64.2113" stroke="#003B80" stroke-linecap="square"/>
<path d="M29.585 91.8096H64.2113" stroke="#003B80" stroke-linecap="square"/>
<path d="M29.585 96.3589H64.2113" stroke="#003B80" stroke-linecap="square"/>
<path d="M29.585 102.425H91.3102" stroke="#003B80" stroke-linecap="square"/>
</g>
<g clip-path="url(#clip3_620_4672)" filter="url(#filter2_i_620_4672)">
<path d="M157.101 78.3259C161.023 67.2128 157.172 55.2216 148.43 48.2813L139.961 72.2768L123.374 66.4228L131.843 42.4273C120.662 42.3982 110.212 49.2801 106.29 60.3933C102.66 70.677 105.693 81.7267 113.079 88.8101L93.9174 143.104L114.43 150.344L133.551 96.2528C143.949 95.5079 153.413 88.7756 157.101 78.3259V78.3259Z" fill="#F0F0F0"/>
</g>
<path d="M176.019 142.514L176.003 142.545C176.066 142.029 176.129 141.497 176.129 140.966C176.129 140.434 176.082 139.934 176.019 139.418L176.035 139.449L179.849 136.448L176.05 129.85L171.563 131.664L171.579 131.679C170.766 131.054 169.875 130.522 168.906 130.116H168.921L168.202 125.332H160.589L159.901 130.132H159.916C158.947 130.538 158.056 131.07 157.243 131.695L157.259 131.679L152.756 129.85L148.941 136.448L152.756 139.449L152.772 139.418C152.709 139.934 152.662 140.434 152.662 140.966C152.662 141.497 152.709 142.029 152.787 142.545L152.772 142.514L149.489 145.093L148.973 145.5L152.772 152.066L157.274 150.268L157.243 150.205C158.072 150.846 158.963 151.378 159.948 151.784H159.901L160.604 156.6H168.187C168.187 156.6 168.233 156.318 168.28 155.943L168.874 151.8H168.859C169.828 151.393 170.735 150.862 171.563 150.221L171.532 150.284L176.035 152.081L179.834 145.515C179.834 145.515 179.615 145.328 179.318 145.109L176.019 142.514ZM164.388 146.438C161.37 146.438 158.916 143.983 158.916 140.966C158.916 137.948 161.37 135.494 164.388 135.494C167.405 135.494 169.859 137.948 169.859 140.966C169.859 143.983 167.405 146.438 164.388 146.438Z" fill="#0F2C65"/>
<g filter="url(#filter3_d_620_4672)">
<circle cx="164.509" cy="141.056" r="7.78444" fill="#F0F0F0"/>
</g>
<path d="M168.07 122.634L168.038 122.697C168.165 121.655 168.291 120.582 168.291 119.508C168.291 118.435 168.196 117.424 168.07 116.382L168.102 116.445L175.806 110.383L168.133 97.059L159.071 100.722L159.103 100.753C157.461 99.4902 155.661 98.4167 153.704 97.5957H153.735L152.283 87.9341H136.906L135.517 97.6273H135.549C133.591 98.4482 131.791 99.5218 130.15 100.785L130.181 100.753L121.088 97.059L113.384 110.383L121.088 116.445L121.119 116.382C120.993 117.424 120.898 118.435 120.898 119.508C120.898 120.582 120.993 121.655 121.151 122.697L121.119 122.634L114.489 127.844L113.447 128.665L121.119 141.926L130.213 138.295L130.15 138.168C131.823 139.463 133.623 140.536 135.612 141.357H135.517L136.938 151.082H152.251C152.251 151.082 152.346 150.514 152.441 149.756L153.641 141.389H153.609C155.567 140.568 157.398 139.495 159.071 138.2L159.008 138.326L168.102 141.957L175.774 128.696C175.774 128.696 175.332 128.317 174.732 127.875L168.07 122.634ZM144.579 130.559C138.485 130.559 133.528 125.602 133.528 119.508C133.528 113.414 138.485 108.457 144.579 108.457C150.673 108.457 155.63 113.414 155.63 119.508C155.63 125.602 150.673 130.559 144.579 130.559Z" fill="#003B80"/>
<g filter="url(#filter4_d_620_4672)">
<circle cx="144.827" cy="119.691" r="15.7215" fill="#F0F0F0"/>
</g>
<path d="M139.07 123.094L138.394 120.884H135.014L134.338 123.094H132.219L135.495 113.773H137.9L141.189 123.094H139.07ZM137.25 117.075C137.206 116.928 137.15 116.742 137.081 116.516C137.011 116.291 136.942 116.061 136.873 115.827C136.803 115.593 136.747 115.39 136.704 115.216C136.66 115.39 136.6 115.606 136.522 115.866C136.452 116.118 136.383 116.36 136.314 116.594C136.253 116.82 136.205 116.98 136.171 117.075L135.508 119.233H137.926L137.25 117.075ZM145.588 113.812C146.784 113.812 147.655 114.072 148.201 114.592C148.756 115.104 149.033 115.81 149.033 116.711C149.033 117.119 148.973 117.509 148.851 117.881C148.73 118.245 148.526 118.575 148.24 118.869C147.963 119.155 147.595 119.381 147.135 119.545C146.676 119.71 146.108 119.792 145.432 119.792H144.587V123.094H142.624V113.812H145.588ZM145.484 115.424H144.587V118.18H145.237C145.61 118.18 145.931 118.133 146.199 118.037C146.468 117.942 146.676 117.79 146.823 117.582C146.971 117.374 147.044 117.106 147.044 116.776C147.044 116.317 146.919 115.979 146.667 115.762C146.416 115.537 146.022 115.424 145.484 115.424ZM154.518 123.094H150.293V121.976L151.424 121.456V115.45L150.293 114.93V113.812H154.518V114.93L153.387 115.45V121.456L154.518 121.976V123.094Z" fill="#003B80"/>
</g>
<defs>
<filter id="filter0_i_620_4672" x="-11" y="141" width="140" height="20" filterUnits="userSpaceOnUse" color-interpolation-filters="sRGB">
<feFlood flood-opacity="0" result="BackgroundImageFix"/>
<feBlend mode="normal" in="SourceGraphic" in2="BackgroundImageFix" result="shape"/>
<feColorMatrix in="SourceAlpha" type="matrix" values="0 0 0 0 0 0 0 0 0 0 0 0 0 0 0 0 0 0 127 0" result="hardAlpha"/>
<feOffset dy="4"/>
<feGaussianBlur stdDeviation="2"/>
<feComposite in2="hardAlpha" operator="arithmetic" k2="-1" k3="1"/>
<feColorMatrix type="matrix" values="0 0 0 0 0 0 0 0 0 0 0 0 0 0 0 0 0 0 0.25 0"/>
<feBlend mode="normal" in2="shape" result="effect1_innerShadow_620_4672"/>
</filter>
<filter id="filter1_i_620_4672" x="-6.54688" y="8.40283" width="137" height="142" filterUnits="userSpaceOnUse" color-interpolation-filters="sRGB">
<feFlood flood-opacity="0" result="BackgroundImageFix"/>
<feBlend mode="normal" in="SourceGraphic" in2="BackgroundImageFix" result="shape"/>
<feColorMatrix in="SourceAlpha" type="matrix" values="0 0 0 0 0 0 0 0 0 0 0 0 0 0 0 0 0 0 127 0" result="hardAlpha"/>
<feOffset dy="4"/>
<feGaussianBlur stdDeviation="2"/>
<feComposite in2="hardAlpha" operator="arithmetic" k2="-1" k3="1"/>
<feColorMatrix type="matrix" values="0 0 0 0 0 0 0 0 0 0 0 0 0 0 0 0 0 0 0.25 0"/>
<feBlend mode="normal" in2="shape" result="effect1_innerShadow_620_4672"/>
</filter>
<filter id="filter2_i_620_4672" x="56.5947" y="27.9028" width="132.694" height="136.694" filterUnits="userSpaceOnUse" color-interpolation-filters="sRGB">
<feFlood flood-opacity="0" result="BackgroundImageFix"/>
<feBlend mode="normal" in="SourceGraphic" in2="BackgroundImageFix" result="shape"/>
<feColorMatrix in="SourceAlpha" type="matrix" values="0 0 0 0 0 0 0 0 0 0 0 0 0 0 0 0 0 0 127 0" result="hardAlpha"/>
<feOffset dy="4"/>
<feGaussianBlur stdDeviation="2"/>
<feComposite in2="hardAlpha" operator="arithmetic" k2="-1" k3="1"/>
<feColorMatrix type="matrix" values="0 0 0 0 0 0 0 0 0 0 0 0 0 0 0 0 0 0 0.25 0"/>
<feBlend mode="normal" in2="shape" result="effect1_innerShadow_620_4672"/>
</filter>
<filter id="filter3_d_620_4672" x="152.725" y="133.272" width="23.5693" height="23.5688" filterUnits="userSpaceOnUse" color-interpolation-filters="sRGB">
<feFlood flood-opacity="0" result="BackgroundImageFix"/>
<feColorMatrix in="SourceAlpha" type="matrix" values="0 0 0 0 0 0 0 0 0 0 0 0 0 0 0 0 0 0 127 0" result="hardAlpha"/>
<feOffset dy="4"/>
<feGaussianBlur stdDeviation="2"/>
<feComposite in2="hardAlpha" operator="out"/>
<feColorMatrix type="matrix" values="0 0 0 0 0 0 0 0 0 0 0 0 0 0 0 0 0 0 0.25 0"/>
<feBlend mode="normal" in2="BackgroundImageFix" result="effect1_dropShadow_620_4672"/>
<feBlend mode="normal" in="SourceGraphic" in2="effect1_dropShadow_620_4672" result="shape"/>
</filter>
<filter id="filter4_d_620_4672" x="125.105" y="103.97" width="39.4434" height="39.4429" filterUnits="userSpaceOnUse" color-interpolation-filters="sRGB">
<feFlood flood-opacity="0" result="BackgroundImageFix"/>
<feColorMatrix in="SourceAlpha" type="matrix" values="0 0 0 0 0 0 0 0 0 0 0 0 0 0 0 0 0 0 127 0" result="hardAlpha"/>
<feOffset dy="4"/>
<feGaussianBlur stdDeviation="2"/>
<feComposite in2="hardAlpha" operator="out"/>
<feColorMatrix type="matrix" values="0 0 0 0 0 0 0 0 0 0 0 0 0 0 0 0 0 0 0.25 0"/>
<feBlend mode="normal" in2="BackgroundImageFix" result="effect1_dropShadow_620_4672"/>
<feBlend mode="normal" in="SourceGraphic" in2="effect1_dropShadow_620_4672" result="shape"/>
</filter>
<clipPath id="clip0_620_4672">
<rect width="184" height="161" fill="white" transform="translate(0.685547)"/>
</clipPath>
<clipPath id="clip1_620_4672">
<rect width="140" height="16" fill="white" transform="translate(129 157) rotate(-180)"/>
</clipPath>
<clipPath id="clip2_620_4672">
<rect width="137" height="138" fill="white" transform="translate(-6.54688 8.40283)"/>
</clipPath>
<clipPath id="clip3_620_4672">
<rect width="99.5011" height="99.5011" fill="white" transform="translate(146.357 27.9028) rotate(64.4395)"/>
</clipPath>
</defs>
</svg>
