<svg width="153" height="154" viewBox="0 0 153 154" fill="none" xmlns="http://www.w3.org/2000/svg">
<g filter="url(#filter0_d_620_4588)">
<ellipse cx="76.5274" cy="77.2817" rx="69.213" ry="69.6567" fill="#F0F0F0"/>
<path d="M143.24 77.2817C143.24 114.386 113.357 144.438 76.5274 144.438C39.6979 144.438 9.81445 114.386 9.81445 77.2817C9.81445 40.177 39.6979 10.125 76.5274 10.125C113.357 10.125 143.24 40.177 143.24 77.2817Z" stroke="#003B80" stroke-width="5"/>
</g>
<g clip-path="url(#clip0_620_4588)">
<path d="M37.7129 75.8069C37.1944 96.5646 53.7546 113.821 74.6961 114.344L74.3832 126.874L91.6548 110.588L75.2178 93.4606L74.9048 105.99C58.5982 105.583 45.7363 92.1809 46.14 76.0174C46.5438 59.8538 60.0588 47.1105 76.3654 47.5178C92.6719 47.9251 105.534 61.3274 105.13 77.4909C104.973 83.7976 102.762 89.5933 99.2289 94.3111L105.148 100.393C110.195 94.1671 113.342 86.3052 113.557 77.7014C114.076 56.9436 97.5155 39.6876 76.574 39.1645C55.6325 38.6415 38.2314 55.0491 37.7129 75.8069Z" fill="#003B80"/>
<path d="M108.693 76.505L108.474 76.7247L108.474 77.0354L108.474 80.831L108.474 81.581L109.224 81.581L113.019 81.581L113.33 81.581L113.55 81.3614L124.744 70.1666L125.275 69.6363L124.744 69.106L120.949 65.3103L120.418 64.78L119.888 65.3103L108.693 76.505ZM124.593 61.6664L124.061 61.1351L123.531 61.6675L120.97 64.2384L120.442 64.7688L120.971 65.298L124.767 69.0937L125.298 69.6251L125.828 69.0927L128.389 66.5217L127.858 65.9925L128.388 65.4621L124.593 61.6664Z" fill="#0F2C65" stroke="#F0F0F0" stroke-width="1.5"/>
</g>
<g filter="url(#filter1_i_620_4588)">
<rect x="96.9365" y="135.403" width="55.9028" height="15.9722" rx="5" fill="#003B80"/>
<rect x="131.376" y="138.897" width="3.99306" height="3.99306" fill="#F0F0F0"/>
<rect x="137.366" y="138.897" width="3.99306" height="3.99306" fill="#F0F0F0"/>
<rect x="143.355" y="138.897" width="3.99306" height="3.99306" fill="#F0F0F0"/>
<rect x="131.376" y="144.387" width="3.99306" height="3.99306" fill="#F0F0F0"/>
<rect x="137.366" y="144.387" width="3.99306" height="3.99306" fill="#F0F0F0"/>
<rect x="143.355" y="144.387" width="3.99306" height="3.99306" fill="#F0F0F0"/>
<circle cx="103.675" cy="143.139" r="3.24436" fill="#F0F0F0"/>
</g>
<g filter="url(#filter2_i_620_4588)">
<rect x="88.0625" y="117.656" width="55.9028" height="15.9722" rx="5" fill="#0F2C65"/>
<rect x="122.502" y="121.15" width="3.99306" height="3.99306" fill="#F0F0F0"/>
<rect x="128.492" y="121.15" width="3.99306" height="3.99306" fill="#F0F0F0"/>
<rect x="134.482" y="121.15" width="3.99306" height="3.99306" fill="#F0F0F0"/>
<rect x="122.502" y="126.64" width="3.99306" height="3.99306" fill="#F0F0F0"/>
<rect x="128.492" y="126.64" width="3.99306" height="3.99306" fill="#F0F0F0"/>
<rect x="134.482" y="126.64" width="3.99306" height="3.99306" fill="#F0F0F0"/>
<circle cx="94.801" cy="125.392" r="3.24436" fill="#F0F0F0"/>
</g>
<g filter="url(#filter3_i_620_4588)">
<rect x="96.9365" y="99.9092" width="55.9028" height="15.9722" rx="5" fill="#003B80"/>
<rect x="131.376" y="103.403" width="3.99306" height="3.99306" fill="#F0F0F0"/>
<rect x="137.366" y="103.403" width="3.99306" height="3.99306" fill="#F0F0F0"/>
<rect x="143.355" y="103.403" width="3.99306" height="3.99306" fill="#F0F0F0"/>
<rect x="131.376" y="108.894" width="3.99306" height="3.99306" fill="#F0F0F0"/>
<rect x="137.366" y="108.894" width="3.99306" height="3.99306" fill="#F0F0F0"/>
<rect x="143.355" y="108.894" width="3.99306" height="3.99306" fill="#F0F0F0"/>
<circle cx="103.675" cy="107.646" r="3.24436" fill="#F0F0F0"/>
</g>
<rect x="89.8389" y="80.3877" width="61.2269" height="19.5216" rx="5" fill="#F0F0F0"/>
<rect x="127.559" y="84.6582" width="4.37335" height="4.8804" fill="#F0F0F0"/>
<rect x="134.119" y="84.6582" width="4.37335" height="4.8804" fill="#F0F0F0"/>
<rect x="140.679" y="84.6582" width="4.37335" height="4.8804" fill="#F0F0F0"/>
<rect x="127.559" y="91.3687" width="4.37335" height="4.8804" fill="#F0F0F0"/>
<rect x="134.119" y="91.3687" width="4.37335" height="4.8804" fill="#F0F0F0"/>
<rect x="140.679" y="91.3687" width="4.37335" height="4.8804" fill="#F0F0F0"/>
<ellipse cx="97.2184" cy="89.8437" rx="3.55335" ry="3.96533" fill="#F0F0F0"/>
<g filter="url(#filter4_i_620_4588)">
<rect x="93.3877" y="82.1621" width="55.9028" height="15.9722" rx="5" fill="#0F2C65"/>
</g>
<rect x="127.827" y="85.6562" width="3.99306" height="3.99306" fill="#F0F0F0"/>
<rect x="133.817" y="85.6562" width="3.99306" height="3.99306" fill="#F0F0F0"/>
<rect x="139.808" y="85.6562" width="3.99306" height="3.99306" fill="#F0F0F0"/>
<rect x="127.827" y="91.1465" width="3.99306" height="3.99306" fill="#F0F0F0"/>
<rect x="133.817" y="91.1465" width="3.99306" height="3.99306" fill="#F0F0F0"/>
<rect x="139.808" y="91.1465" width="3.99306" height="3.99306" fill="#F0F0F0"/>
<circle cx="100.126" cy="89.8987" r="3.24436" fill="#F0F0F0"/>
<defs>
<filter id="filter0_d_620_4588" x="0.314453" y="0.625" width="152.426" height="153.313" filterUnits="userSpaceOnUse" color-interpolation-filters="sRGB">
<feFlood flood-opacity="0" result="BackgroundImageFix"/>
<feColorMatrix in="SourceAlpha" type="matrix" values="0 0 0 0 0 0 0 0 0 0 0 0 0 0 0 0 0 0 127 0" result="hardAlpha"/>
<feMorphology radius="2" operator="dilate" in="SourceAlpha" result="effect1_dropShadow_620_4588"/>
<feOffset/>
<feGaussianBlur stdDeviation="2.5"/>
<feComposite in2="hardAlpha" operator="out"/>
<feColorMatrix type="matrix" values="0 0 0 0 0.675 0 0 0 0 0.675 0 0 0 0 0.675 0 0 0 0.5 0"/>
<feBlend mode="normal" in2="BackgroundImageFix" result="effect1_dropShadow_620_4588"/>
<feBlend mode="normal" in="SourceGraphic" in2="effect1_dropShadow_620_4588" result="shape"/>
</filter>
<filter id="filter1_i_620_4588" x="96.9365" y="135.403" width="55.9023" height="19.9722" filterUnits="userSpaceOnUse" color-interpolation-filters="sRGB">
<feFlood flood-opacity="0" result="BackgroundImageFix"/>
<feBlend mode="normal" in="SourceGraphic" in2="BackgroundImageFix" result="shape"/>
<feColorMatrix in="SourceAlpha" type="matrix" values="0 0 0 0 0 0 0 0 0 0 0 0 0 0 0 0 0 0 127 0" result="hardAlpha"/>
<feOffset dy="4"/>
<feGaussianBlur stdDeviation="2"/>
<feComposite in2="hardAlpha" operator="arithmetic" k2="-1" k3="1"/>
<feColorMatrix type="matrix" values="0 0 0 0 0 0 0 0 0 0 0 0 0 0 0 0 0 0 0.25 0"/>
<feBlend mode="normal" in2="shape" result="effect1_innerShadow_620_4588"/>
</filter>
<filter id="filter2_i_620_4588" x="88.0625" y="117.656" width="55.9023" height="19.9722" filterUnits="userSpaceOnUse" color-interpolation-filters="sRGB">
<feFlood flood-opacity="0" result="BackgroundImageFix"/>
<feBlend mode="normal" in="SourceGraphic" in2="BackgroundImageFix" result="shape"/>
<feColorMatrix in="SourceAlpha" type="matrix" values="0 0 0 0 0 0 0 0 0 0 0 0 0 0 0 0 0 0 127 0" result="hardAlpha"/>
<feOffset dy="4"/>
<feGaussianBlur stdDeviation="2"/>
<feComposite in2="hardAlpha" operator="arithmetic" k2="-1" k3="1"/>
<feColorMatrix type="matrix" values="0 0 0 0 0 0 0 0 0 0 0 0 0 0 0 0 0 0 0.25 0"/>
<feBlend mode="normal" in2="shape" result="effect1_innerShadow_620_4588"/>
</filter>
<filter id="filter3_i_620_4588" x="96.9365" y="99.9092" width="55.9023" height="19.9722" filterUnits="userSpaceOnUse" color-interpolation-filters="sRGB">
<feFlood flood-opacity="0" result="BackgroundImageFix"/>
<feBlend mode="normal" in="SourceGraphic" in2="BackgroundImageFix" result="shape"/>
<feColorMatrix in="SourceAlpha" type="matrix" values="0 0 0 0 0 0 0 0 0 0 0 0 0 0 0 0 0 0 127 0" result="hardAlpha"/>
<feOffset dy="4"/>
<feGaussianBlur stdDeviation="2"/>
<feComposite in2="hardAlpha" operator="arithmetic" k2="-1" k3="1"/>
<feColorMatrix type="matrix" values="0 0 0 0 0 0 0 0 0 0 0 0 0 0 0 0 0 0 0.25 0"/>
<feBlend mode="normal" in2="shape" result="effect1_innerShadow_620_4588"/>
</filter>
<filter id="filter4_i_620_4588" x="93.3877" y="82.1621" width="55.9023" height="19.9722" filterUnits="userSpaceOnUse" color-interpolation-filters="sRGB">
<feFlood flood-opacity="0" result="BackgroundImageFix"/>
<feBlend mode="normal" in="SourceGraphic" in2="BackgroundImageFix" result="shape"/>
<feColorMatrix in="SourceAlpha" type="matrix" values="0 0 0 0 0 0 0 0 0 0 0 0 0 0 0 0 0 0 127 0" result="hardAlpha"/>
<feOffset dy="4"/>
<feGaussianBlur stdDeviation="2"/>
<feComposite in2="hardAlpha" operator="arithmetic" k2="-1" k3="1"/>
<feColorMatrix type="matrix" values="0 0 0 0 0 0 0 0 0 0 0 0 0 0 0 0 0 0 0.25 0"/>
<feBlend mode="normal" in2="shape" result="effect1_innerShadow_620_4588"/>
</filter>
<clipPath id="clip0_620_4588">
<rect width="100.27" height="101.157" fill="white" transform="translate(25.0615 125.61) rotate(-88.5691)"/>
</clipPath>
</defs>
</svg>
