<svg width="453" height="308" viewBox="0 0 453 308" fill="none" xmlns="http://www.w3.org/2000/svg">
<rect x="152" y="144" width="195" height="5" fill="white"/>
<rect x="50.5" y="36.5" width="357" height="259" fill="white" stroke="#003B80" stroke-width="5"/>
<path d="M48 17C48 11.4772 52.4772 7 58 7H400C405.523 7 410 11.4772 410 17V34H48V17Z" fill="#003B80"/>
<path fill-rule="evenodd" clip-rule="evenodd" d="M432.163 155C437.685 155 442.163 159.477 442.163 165V190.07C442.163 195.593 437.685 200.07 432.163 200.07H430.048C431.997 204.865 440.977 205.988 440.977 205.988C440.478 205.988 439.963 205.991 439.433 205.994C432.524 206.031 423.211 206.082 418.941 200.07H369.139C363.616 200.07 359.139 195.593 359.139 190.07V165C359.139 159.477 363.617 155 369.139 155H432.163Z" fill="#003B80"/>
<path d="M430.048 200.07L429.354 200.352L428.934 199.32H430.048V200.07ZM440.977 205.988L441.07 205.244L440.977 206.738V205.988ZM439.433 205.994L439.437 206.744H439.437L439.433 205.994ZM418.941 200.07V199.32H419.329L419.553 199.636L418.941 200.07ZM441.413 165C441.413 159.891 437.271 155.75 432.163 155.75V154.25C438.1 154.25 442.913 159.063 442.913 165H441.413ZM441.413 190.07V165H442.913V190.07H441.413ZM432.163 199.32C437.271 199.32 441.413 195.178 441.413 190.07H442.913C442.913 196.007 438.1 200.82 432.163 200.82V199.32ZM430.048 199.32H432.163V200.82H430.048V199.32ZM440.977 205.988C440.884 206.732 440.883 206.732 440.883 206.732C440.883 206.732 440.883 206.732 440.882 206.732C440.882 206.732 440.881 206.732 440.88 206.732C440.879 206.732 440.877 206.731 440.874 206.731C440.869 206.73 440.861 206.729 440.852 206.728C440.833 206.726 440.805 206.722 440.77 206.717C440.699 206.707 440.597 206.692 440.468 206.671C440.209 206.629 439.84 206.565 439.391 206.472C438.496 206.287 437.278 205.989 435.993 205.534C434.711 205.081 433.339 204.464 432.148 203.632C430.96 202.802 429.913 201.729 429.354 200.352L430.743 199.787C431.158 200.808 431.965 201.674 433.008 202.403C434.049 203.13 435.287 203.693 436.493 204.12C437.697 204.546 438.845 204.828 439.695 205.003C440.119 205.091 440.466 205.151 440.706 205.19C440.826 205.209 440.919 205.223 440.981 205.232C441.012 205.236 441.035 205.239 441.05 205.241C441.057 205.242 441.063 205.243 441.066 205.243C441.068 205.244 441.069 205.244 441.07 205.244C441.07 205.244 441.07 205.244 441.07 205.244C441.07 205.244 441.07 205.244 441.07 205.244C441.07 205.244 441.07 205.244 440.977 205.988ZM439.429 205.244C439.958 205.241 440.476 205.238 440.977 205.238V206.738C440.481 206.738 439.967 206.741 439.437 206.744L439.429 205.244ZM419.553 199.636C421.529 202.418 424.705 203.848 428.342 204.565C431.981 205.282 435.96 205.263 439.429 205.244L439.437 206.744C435.996 206.762 431.864 206.788 428.052 206.036C424.238 205.285 420.623 203.734 418.33 200.504L419.553 199.636ZM369.139 199.32H418.941V200.82H369.139V199.32ZM359.889 190.07C359.889 195.178 364.031 199.32 369.139 199.32V200.82C363.202 200.82 358.389 196.007 358.389 190.07H359.889ZM359.889 165V190.07H358.389V165H359.889ZM369.139 155.75C364.031 155.75 359.889 159.891 359.889 165H358.389C358.389 159.063 363.202 154.25 369.139 154.25V155.75ZM432.163 155.75H369.139V154.25H432.163V155.75Z" fill="white"/>
<path d="M424.372 164.489L369.814 164.489" stroke="white" stroke-linecap="round"/>
<path d="M425.558 172.791L373.372 172.791" stroke="white" stroke-linecap="round"/>
<path d="M432.674 181.093H379.302" stroke="white" stroke-linecap="round"/>
<path d="M417.256 189.395L373.372 189.395" stroke="white" stroke-linecap="round"/>
<rect x="152" y="60" width="195" height="228" fill="#F0F0F0"/>
<rect x="152" y="100" width="195" height="5" fill="white"/>
<rect opacity="0.5" x="273" y="133" width="45" height="4" rx="2" fill="#C6C3C3"/>
<rect opacity="0.5" x="277" y="124" width="45" height="4" rx="2" fill="#C6C3C3"/>
<rect opacity="0.5" x="271" y="116" width="45" height="4" rx="2" fill="#C6C3C3"/>
<rect opacity="0.5" x="163" y="92" width="45" height="4" rx="2" fill="#C6C3C3"/>
<rect opacity="0.5" x="167" y="84" width="45" height="4" rx="2" fill="#C6C3C3"/>
<rect opacity="0.5" x="161" y="77" width="45" height="4" rx="2" fill="#C6C3C3"/>
<rect opacity="0.5" x="167" y="70" width="45" height="4" rx="2" fill="#C6C3C3"/>
<rect opacity="0.5" x="203" y="178" width="45" height="4" rx="2" fill="#C6C3C3"/>
<rect opacity="0.5" x="207" y="170" width="45" height="4" rx="2" fill="#C6C3C3"/>
<rect opacity="0.5" x="201" y="161" width="45" height="4" rx="2" fill="#C6C3C3"/>
<path d="M358.511 250.72H304.114L309.688 247.2H350.884L358.511 250.72Z" fill="#D5D3D3" stroke="#F0F0F0" stroke-width="0.8" stroke-linecap="round"/>
<path d="M302.012 238.16L356.733 231.268L358.101 241.981L303.38 248.969L302.012 238.16Z" fill="#F0F0F0"/>
<path d="M354.839 231.053L304.216 237.381L312.625 232.161L346.583 227.514L354.839 231.053Z" fill="#C6C3C3" stroke="#F0F0F0" stroke-linecap="round"/>
<rect x="302.732" y="251.12" width="57.6" height="38.88" fill="#F0F0F0"/>
<g opacity="0.15">
<path d="M309.572 246.8L302.732 251.12H360.332L350.972 246.8H309.572Z" fill="#D5D3D3"/>
<path d="M302.012 238.16L356.733 231.268L358.101 241.981L303.38 248.969L302.012 238.16Z" fill="#D5D3D3"/>
<path d="M354.839 231.053L304.216 237.381L312.625 232.161L346.583 227.514L354.839 231.053Z" fill="#D5D3D3" stroke="#D5D3D3" stroke-linecap="round"/>
<rect x="302.732" y="251.12" width="57.6" height="38.88" fill="#D5D3D3"/>
</g>
<path d="M124.272 160.204C124.272 171.313 117.977 171.868 115.94 174.645C124.827 189.087 176.46 177.794 169.263 174.645C160.376 170.757 160.376 163.166 158.709 160.204H124.272Z" fill="white" stroke="#0F2C65" stroke-width="1.5" stroke-linecap="round"/>
<path d="M169.406 173.498C144.25 182.439 127.73 177.223 115.385 173.498C77.7591 179.018 36.9772 210.056 50.9528 221.232C62.1332 230.173 80.4288 245.911 82.758 249.636C69.2828 277.333 63.0622 287.733 60.5 293.089H150.19H227.405C213.144 254.207 210.922 259.003 209.256 242.895C222.031 245.142 242.369 235.119 235.917 220.122C226.141 197.398 187.318 179.942 169.406 173.498Z" fill="#0F2C65" stroke="#0F2C65" stroke-width="1.5" stroke-linecap="round"/>
<path opacity="0.3" fill-rule="evenodd" clip-rule="evenodd" d="M223.076 288.528C167.263 291.367 91.0475 283.484 83.5311 252.764L81.3669 250.309C77.3765 268.193 69.0323 282.678 64.7802 290.06C63.7253 291.891 62.9222 293.285 62.5 294.185H225.104C224.398 292.223 223.723 290.339 223.076 288.528Z" fill="#1383BE"/>
<path d="M59.8401 268.445C29.1794 262.224 40.7697 234.008 50.3975 220.677C63.7284 224.676 74.652 236.229 75.3925 240.118C100.388 237.34 120.013 224.565 129.826 215.678C127.049 205.68 132.604 192.904 140.38 195.126C146.601 196.904 142.972 202.902 140.38 205.68C157.043 190.683 178.15 197.903 170.374 212.901C164.153 224.898 155.562 226.416 152.044 225.676C134.085 242.524 90.5009 274.666 59.8401 268.445Z" fill="white" stroke="#0F2C65" stroke-width="1.5" stroke-linecap="round"/>
<path d="M231.474 212.901C224.809 230.675 213.515 239.562 208.701 241.784C255.358 256.004 270.355 210.123 273.133 185.684C277.576 182.536 287.019 166.243 279.798 156.801C270.637 144.82 256.099 157.726 255.358 163.466C248.138 146.247 239.806 171.797 255.358 180.685C249.248 200.681 243.138 209.013 231.474 212.901Z" fill="white" stroke="#0F2C65" stroke-width="1.5" stroke-linecap="round"/>
<path d="M173.29 134.868C173.252 124.179 176.696 113.963 176.329 109.385C171.747 89.0424 156.441 100.135 117.672 97.7194C108.825 97.1682 104.517 115.505 110.931 128.142C108.149 142.61 117.215 171.238 147.588 171.238C165.532 171.238 174.833 146.468 173.29 134.868Z" fill="white" stroke="#0F2C65" stroke-width="1.5" stroke-linecap="round"/>
<path d="M113.137 117.727C111.282 117.717 109.241 123.501 108.452 126.394C103.832 123.471 107.373 111.9 108.52 114.224C109.666 116.549 115.455 117.74 113.137 117.727Z" fill="#003B80" stroke="#0F2C65" stroke-width="1.5" stroke-linecap="round"/>
<path fill-rule="evenodd" clip-rule="evenodd" d="M166.364 130.184C166.007 130.432 165.56 130.59 165.069 130.614C163.833 130.674 162.79 129.865 162.738 128.806C162.714 128.323 162.9 127.872 163.227 127.518C162.903 127.464 162.566 127.443 162.22 127.46C159.982 127.57 158.244 129.214 158.338 131.132C158.433 133.05 160.323 134.516 162.561 134.406C164.799 134.296 166.536 132.652 166.442 130.734C166.433 130.546 166.407 130.363 166.364 130.184Z" fill="#0F2C65"/>
<path fill-rule="evenodd" clip-rule="evenodd" d="M142.874 130.185C142.517 130.432 142.069 130.59 141.579 130.614C140.343 130.675 139.299 129.865 139.247 128.806C139.224 128.323 139.41 127.872 139.737 127.518C139.413 127.464 139.076 127.443 138.73 127.46C136.492 127.57 134.754 129.214 134.848 131.132C134.942 133.05 136.833 134.516 139.071 134.406C141.308 134.297 143.046 132.653 142.952 130.734C142.943 130.546 142.916 130.363 142.874 130.185Z" fill="#0F2C65"/>
<path d="M174.573 120.54C167.765 123.934 160.552 120.717 159.028 118.751C158.847 120.322 157.361 123.095 152.864 121.623C147.632 119.91 134.656 124.025 135.856 119.174C133.98 121.572 127.414 124.412 123.41 121.532C118.669 118.122 115.753 117.642 112.975 121.5C108.347 120.36 100.035 115.831 103.817 106.834C108.545 95.5869 111.772 76.6302 136.662 81.4482C139.348 79.0856 152.136 75.8057 159.325 81.5178C167.427 85.2014 191.312 112.195 174.573 120.54Z" fill="#0F2C65" stroke="#003B80" stroke-width="1.5" stroke-linecap="round"/>
<path d="M151.121 135.224C152.848 137.358 155.95 142.321 154.543 145.095C152.785 148.563 149.315 147.385 148.168 145.06" stroke="#0F2C65" stroke-linecap="round"/>
<path d="M117.334 135.096C117.923 140.646 114.529 142.213 112.758 142.302C107.598 141.543 98.564 131.283 107.424 126.808C116.283 122.334 116.598 128.159 117.334 135.096Z" fill="#0F2C65"/>
<path d="M137.133 163.41C128.457 162.658 113.391 157.105 112.758 142.302M112.758 142.302C114.529 142.213 117.923 140.646 117.334 135.096C116.598 128.159 116.283 122.334 107.424 126.808C98.564 131.283 107.598 141.543 112.758 142.302Z" stroke="#0F2C65" stroke-width="1.5" stroke-linecap="round"/>
<path d="M140.432 163.274C140.271 164.372 139.117 165.202 137.755 165.001C136.392 164.801 135.527 163.673 135.688 162.576C135.85 161.479 137.004 160.649 138.366 160.849C139.728 161.05 140.594 162.177 140.432 163.274Z" fill="#003B80" stroke="#0F2C65"/>
<path d="M140.38 155.253C144.244 157.378 153.709 160.121 160.664 154.094" stroke="#0F2C65" stroke-linecap="round"/>
<path d="M155.1 86.9097C159.929 90.7733 169.472 100.007 169.009 106.035C168.429 113.569 165.531 95.6029 155.1 86.9097Z" fill="#003B80"/>
<path d="M123.85 88.0686C120.514 92.3993 114.128 102.543 115.275 108.472C116.708 115.883 116.689 97.7678 123.85 88.0686Z" fill="#003B80"/>
<path d="M141.169 91.5464C143.409 96.1087 147.438 106.673 145.635 112.433C143.381 119.633 145.921 101.738 141.169 91.5464Z" fill="#003B80"/>
<path d="M394.652 264.71H356.382L360.041 262.4H389.646L394.652 264.71Z" fill="#F0F0F0" stroke="#D4D3D3" stroke-width="0.8" stroke-linecap="round"/>
<rect x="355" y="265.111" width="41.473" height="27.9943" fill="#D4D3D3"/>
<path d="M126.5 42.9998C93.9997 35.5 35.735 55.0001 14.9997 102C-0.000348091 136 -8.5 271 373.5 261" stroke="#E3E3E3" stroke-width="3" stroke-dasharray="6 6"/>
<path d="M356.958 250.789L396.369 255.661L395.428 263.38L356 258.575L356.958 250.789Z" fill="#D4D3D3"/>
<path d="M394.59 254.973L359.285 250.575L365.44 248.622L389.894 251.38L394.59 254.973Z" fill="#F0F0F0" stroke="#D4D3D3" stroke-linecap="round"/>
<g filter="url(#filter0_d_328_2981)">
<path d="M125.96 43.39C120.668 31.4703 118.887 22.3009 118.902 15.7817L136.718 38.2206L149.087 52.898L129.713 53.9741L99.1964 55.585C113.119 43.9913 121.095 43.9877 125.96 43.39Z" fill="#F0F0F0" stroke="#F0F0F0" stroke-width="2" stroke-linejoin="round"/>
<path opacity="0.3" d="M149.034 53.2796C148.939 53.2388 148.843 53.197 148.746 53.1541C141.819 50.1862 119.966 44.5192 107.822 48.0073C116.769 42.6976 123.787 42.7521 124.784 42.8311C123.651 41.9388 120.349 31.278 119.069 26.3281C124.044 38.619 140.558 49.5382 148.746 53.1541C148.845 53.1965 148.941 53.2383 149.034 53.2796Z" fill="#C6C3C3"/>
</g>
<path fill-rule="evenodd" clip-rule="evenodd" d="M323 48C317.477 48 313 52.4771 313 58V108.413C313 113.936 317.477 118.413 323 118.413H331.011C331.956 126.984 320.438 128.827 320.438 128.827C320.907 128.827 321.392 128.83 321.89 128.834C329.254 128.885 339.519 128.957 342.501 118.413H423C428.523 118.413 433 113.936 433 108.413V58C433 52.4772 428.523 48 423 48H323Z" fill="#003B80"/>
<path d="M331.011 118.413L331.757 118.331L331.683 117.663H331.011V118.413ZM320.438 128.827L320.32 128.086L320.438 129.577V128.827ZM321.89 128.834L321.885 129.584H321.885L321.89 128.834ZM342.501 118.413V117.663H341.933L341.779 118.209L342.501 118.413ZM313.75 58C313.75 52.8914 317.891 48.75 323 48.75V47.25C317.063 47.25 312.25 52.0629 312.25 58H313.75ZM313.75 108.413V58H312.25V108.413H313.75ZM323 117.663C317.891 117.663 313.75 113.522 313.75 108.413H312.25C312.25 114.35 317.063 119.163 323 119.163V117.663ZM331.011 117.663H323V119.163H331.011V117.663ZM320.438 128.827C320.557 129.567 320.557 129.567 320.557 129.567C320.557 129.567 320.558 129.567 320.558 129.567C320.559 129.567 320.56 129.567 320.561 129.567C320.563 129.566 320.566 129.566 320.569 129.565C320.576 129.564 320.586 129.562 320.598 129.56C320.623 129.556 320.659 129.55 320.704 129.541C320.794 129.525 320.925 129.499 321.088 129.464C321.416 129.394 321.879 129.284 322.43 129.125C323.53 128.809 324.997 128.292 326.443 127.49C329.325 125.89 332.277 123.051 331.757 118.331L330.266 118.495C330.69 122.346 328.355 124.713 325.715 126.178C324.399 126.908 323.046 127.387 322.015 127.684C321.502 127.832 321.073 127.933 320.774 127.997C320.625 128.029 320.508 128.052 320.431 128.066C320.392 128.074 320.363 128.079 320.344 128.082C320.334 128.084 320.328 128.085 320.324 128.085C320.322 128.086 320.32 128.086 320.32 128.086C320.319 128.086 320.319 128.086 320.319 128.086C320.319 128.086 320.319 128.086 320.319 128.086C320.319 128.086 320.32 128.086 320.438 128.827ZM321.896 128.084C321.398 128.08 320.91 128.077 320.438 128.077V129.577C320.904 129.577 321.386 129.58 321.885 129.584L321.896 128.084ZM341.779 118.209C340.365 123.21 337.259 125.659 333.601 126.885C329.88 128.132 325.602 128.109 321.896 128.084L321.885 129.584C325.542 129.609 330.079 129.648 334.077 128.308C338.137 126.947 341.655 124.16 343.222 118.617L341.779 118.209ZM423 117.663H342.501V119.163H423V117.663ZM432.25 108.413C432.25 113.522 428.109 117.663 423 117.663V119.163C428.937 119.163 433.75 114.35 433.75 108.413H432.25ZM432.25 58V108.413H433.75V58H432.25ZM423 48.75C428.109 48.75 432.25 52.8914 432.25 58H433.75C433.75 52.0629 428.937 47.25 423 47.25V48.75ZM323 48.75H423V47.25H323V48.75Z" fill="white"/>
<path d="M324.901 59.9009L406.223 59.9009" stroke="white" stroke-width="1.5" stroke-linecap="round"/>
<path d="M335.81 74.7769H408.207" stroke="white" stroke-width="1.5" stroke-linecap="round"/>
<path d="M340.769 89.6528L418.124 89.6528" stroke="white" stroke-width="1.5" stroke-linecap="round"/>
<path d="M330.852 104.529H409.199" stroke="white" stroke-width="1.5" stroke-linecap="round"/>
<circle cx="390.5" cy="23.5" r="8.5" fill="white"/>
<circle cx="390.5" cy="23.5" r="6.5" fill="white" stroke="#003B80" stroke-width="2"/>
<rect x="387" y="22.5" width="7" height="1.5" rx="0.75" fill="#003B80"/>
<defs>
<filter id="filter0_d_328_2981" x="94.1963" y="14.7817" width="59.8901" height="50.8032" filterUnits="userSpaceOnUse" color-interpolation-filters="sRGB">
<feFlood flood-opacity="0" result="BackgroundImageFix"/>
<feColorMatrix in="SourceAlpha" type="matrix" values="0 0 0 0 0 0 0 0 0 0 0 0 0 0 0 0 0 0 127 0" result="hardAlpha"/>
<feOffset dy="5"/>
<feGaussianBlur stdDeviation="2"/>
<feComposite in2="hardAlpha" operator="out"/>
<feColorMatrix type="matrix" values="0 0 0 0 0 0 0 0 0 0 0 0 0 0 0 0 0 0 0.15 0"/>
<feBlend mode="normal" in2="BackgroundImageFix" result="effect1_dropShadow_328_2981"/>
<feBlend mode="normal" in="SourceGraphic" in2="effect1_dropShadow_328_2981" result="shape"/>
</filter>
</defs>
</svg>
