<svg width="27" height="27" viewBox="0 0 27 27" fill="none" xmlns="http://www.w3.org/2000/svg">
<ellipse cx="5.33333" cy="6.59259" rx="2.33333" ry="2.59259" fill="#373737"/>
<rect x="3" y="5.48145" width="4.66667" height="18.5185" rx="2" fill="#373737"/>
<path fill-rule="evenodd" clip-rule="evenodd" d="M11.3335 4C10.7812 4 10.3335 4.44772 10.3335 5V14.8519C10.3335 15.4041 10.7812 15.8519 11.3335 15.8519H20.0002C20.5524 15.8519 21.0002 15.4041 21.0002 14.8519V5C21.0002 4.44772 20.5524 4 20.0002 4H11.3335ZM12.4076 10.6667C11.9985 10.6667 11.6668 10.9983 11.6668 11.4074C11.6668 11.8165 11.9985 12.1481 12.4076 12.1481H18.9261C19.3352 12.1481 19.6668 11.8165 19.6668 11.4074C19.6668 10.9983 19.3352 10.6667 18.9261 10.6667H12.4076ZM11.6668 13.6296C11.6668 13.2205 11.9985 12.8889 12.4076 12.8889H18.9261C19.3352 12.8889 19.6668 13.2205 19.6668 13.6296C19.6668 14.0387 19.3352 14.3704 18.9261 14.3704H12.4076C11.9985 14.3704 11.6668 14.0387 11.6668 13.6296ZM12.4076 8.44444C11.9985 8.44444 11.6668 8.77609 11.6668 9.18519C11.6668 9.59429 11.9985 9.92593 12.4076 9.92593H18.9261C19.3352 9.92593 19.6668 9.59429 19.6668 9.18519C19.6668 8.77609 19.3352 8.44444 18.9261 8.44444H12.4076Z" fill="#373737"/>
<path fill-rule="evenodd" clip-rule="evenodd" d="M9.3335 9.1853H9.66667V15.5926C9.66667 16.1449 10.1144 16.5926 10.6667 16.5926H20.6667C21.219 16.5926 21.6667 16.1449 21.6667 15.5926V9.1853H22.0002C22.5524 9.1853 23.0002 9.63302 23.0002 10.1853V23.0001C23.0002 23.5524 22.5524 24.0001 22.0002 24.0001H9.3335C8.78121 24.0001 8.3335 23.5524 8.3335 23.0001V10.1853C8.3335 9.63302 8.78121 9.1853 9.3335 9.1853ZM12.3335 21.037C12.7017 21.037 13.0001 20.7054 13.0001 20.2963C13.0001 19.8872 12.7017 19.5556 12.3335 19.5556C11.9653 19.5556 11.6668 19.8872 11.6668 20.2963C11.6668 20.7054 11.9653 21.037 12.3335 21.037ZM13.0001 22.5185C13.0001 22.9276 12.7017 23.2593 12.3335 23.2593C11.9653 23.2593 11.6668 22.9276 11.6668 22.5185C11.6668 22.1094 11.9653 21.7778 12.3335 21.7778C12.7017 21.7778 13.0001 22.1094 13.0001 22.5185ZM10.3333 21.037C10.7015 21.037 11 20.7054 11 20.2963C11 19.8872 10.7015 19.5556 10.3333 19.5556C9.96514 19.5556 9.66667 19.8872 9.66667 20.2963C9.66667 20.7054 9.96514 21.037 10.3333 21.037ZM11 22.5185C11 22.9276 10.7015 23.2593 10.3333 23.2593C9.96514 23.2593 9.66667 22.9276 9.66667 22.5185C9.66667 22.1094 9.96514 21.7778 10.3333 21.7778C10.7015 21.7778 11 22.1094 11 22.5185ZM14.3333 21.037C14.7015 21.037 14.9999 20.7054 14.9999 20.2963C14.9999 19.8872 14.7015 19.5556 14.3333 19.5556C13.9651 19.5556 13.6666 19.8872 13.6666 20.2963C13.6666 20.7054 13.9651 21.037 14.3333 21.037ZM14.9999 22.5185C14.9999 22.9276 14.7015 23.2593 14.3333 23.2593C13.9651 23.2593 13.6666 22.9276 13.6666 22.5185C13.6666 22.1094 13.9651 21.7778 14.3333 21.7778C14.7015 21.7778 14.9999 22.1094 14.9999 22.5185ZM12.3335 18.8148C12.7017 18.8148 13.0001 18.4832 13.0001 18.0741C13.0001 17.665 12.7017 17.3333 12.3335 17.3333C11.9653 17.3333 11.6668 17.665 11.6668 18.0741C11.6668 18.4832 11.9653 18.8148 12.3335 18.8148ZM11 18.0741C11 18.4832 10.7015 18.8148 10.3333 18.8148C9.96514 18.8148 9.66667 18.4832 9.66667 18.0741C9.66667 17.665 9.96514 17.3333 10.3333 17.3333C10.7015 17.3333 11 17.665 11 18.0741ZM14.3333 18.8148C14.7015 18.8148 14.9999 18.4832 14.9999 18.0741C14.9999 17.665 14.7015 17.3333 14.3333 17.3333C13.9651 17.3333 13.6666 17.665 13.6666 18.0741C13.6666 18.4832 13.9651 18.8148 14.3333 18.8148ZM19 21.7778C19 22.596 18.403 23.2593 17.6667 23.2593C16.9303 23.2593 16.3333 22.596 16.3333 21.7778C16.3333 20.9596 16.9303 20.2963 17.6667 20.2963C18.403 20.2963 19 20.9596 19 21.7778ZM21 23.2593C21.7364 23.2593 22.3333 22.596 22.3333 21.7778C22.3333 20.9596 21.7364 20.2963 21 20.2963C20.2636 20.2963 19.6667 20.9596 19.6667 21.7778C19.6667 22.596 20.2636 23.2593 21 23.2593Z" fill="#373737"/>
</svg>
