<svg width="98" height="90" viewBox="0 0 98 90" fill="none" xmlns="http://www.w3.org/2000/svg">
<circle cx="45" cy="45" r="45" fill="#0F2C65"/>
<circle opacity="0.5" cx="52.3472" cy="45" r="45" fill="#0F2C65"/>
<path d="M20.2031 61.7926V24.2588L61.0814 19.0562V56.5899L20.2031 61.7926Z" fill="#0F2C65" stroke="white"/>
<path d="M61.0814 25.1939L20.2031 30.948V24.0431L61.0814 19.0562V25.1939Z" fill="#003B80" stroke="white"/>
<circle cx="53.6496" cy="23.5158" r="1.48648" stroke="white"/>
<circle cx="58.1086" cy="22.7726" r="1.48648" stroke="white"/>
<path d="M20.2031 34.6641C23.7955 32.6821 33.1355 30.7992 41.7571 39.1235C50.3788 47.4478 58.2323 39.619 61.0814 34.6641" stroke="white"/>
<path d="M27.8193 70.255V32.7212L68.6977 27.5186V65.0523L27.8193 70.255Z" stroke="white"/>
<path d="M68.6977 33.6563L27.8193 39.4104V32.5055L68.6977 27.5186V33.6563Z" fill="#003B80" stroke="white"/>
<circle cx="61.2658" cy="31.9782" r="1.48648" stroke="white"/>
<circle cx="65.7248" cy="31.235" r="1.48648" stroke="white"/>
<path d="M27.8193 54.1279C31.4117 52.146 40.7517 50.2631 49.3734 58.5874C57.995 66.9117 65.8486 59.0829 68.6977 54.1279" stroke="white"/>
</svg>
