<svg width="97" height="90" viewBox="0 0 97 90" fill="none" xmlns="http://www.w3.org/2000/svg">
<circle cx="44.8396" cy="44.8396" r="44.8396" fill="#0F2C65"/>
<circle opacity="0.5" cx="52.1599" cy="44.8396" r="44.8396" fill="#0F2C65"/>
<path d="M33.6347 53.2215L37.1993 48.6459L40.0633 52.0943L40.4609 52.5731L40.8428 52.0816L45.0168 46.7085L49.912 53.2215H33.6347ZM22.9604 63.7044V64.2044H23.4604H49.5814V66.532H20.6328V37.5835H22.9604V63.7044ZM53.409 57.5492H53.909V57.0492V33.7558V33.2558H53.409H30.1157H29.6157V33.7558V57.0492V57.5492H30.1157H53.409ZM27.288 59.8768V30.9282H56.2366V59.8768H27.288Z" stroke="white"/>
<path d="M42.0938 40.2058V45.9841H47.8721L64.9144 28.9418L59.1361 23.1634L42.0938 40.2058ZM70.4617 23.3946L64.6833 17.6162L60.7848 21.5301L66.5632 27.3085L70.4617 23.3946V23.3946Z" fill="#003B80"/>
<path d="M62.8539 17.4085L67.9252 22.4797L64.7324 25.6851L59.6612 20.6139L62.8539 17.4085ZM45.8349 44.5686H40.7637V39.4973L57.306 22.955L62.3773 28.0263L45.8349 44.5686Z" stroke="white"/>
</svg>
