<svg width="97" height="90" viewBox="0 0 97 90" fill="none" xmlns="http://www.w3.org/2000/svg">
<circle cx="44.8396" cy="44.8396" r="44.8396" fill="#0F2C65"/>
<circle opacity="0.5" cx="52.1599" cy="44.8396" r="44.8396" fill="#0F2C65"/>
<path fill-rule="evenodd" clip-rule="evenodd" d="M46.7337 27.8872C47.7507 24.7178 50.7221 22.4238 54.2293 22.4238C57.8229 22.4238 60.854 24.8323 61.7965 28.1231C62.172 28.0719 62.5554 28.0455 62.9449 28.0455C67.6022 28.0455 71.3776 31.821 71.3776 36.4783C71.3776 40.5097 68.5486 43.8805 64.7675 44.7135C62.7867 39.7601 57.9435 36.2609 52.2829 36.2609C51.6634 36.2609 51.0537 36.3028 50.4564 36.3839C49.506 33.0655 47.223 30.3101 44.2236 28.7336C44.9983 28.329 45.8425 28.0393 46.7337 27.8872Z" fill="#003B80"/>
<mask id="path-4-inside-1_280_3009" fill="white">
<path fill-rule="evenodd" clip-rule="evenodd" d="M42.918 28.1404C44.3433 25.2463 47.3222 23.2549 50.7663 23.2549C54.7583 23.2549 58.1254 25.9303 59.1724 29.5859C59.5893 29.5292 60.0148 29.4999 60.4473 29.4999C65.6209 29.4999 69.8149 33.6939 69.8149 38.8675C69.8149 42.2175 68.0563 45.1568 65.412 46.8127C65.6158 47.7431 65.7232 48.7097 65.7232 49.7013C65.7232 56.8229 60.1842 62.6509 53.1793 63.1123V63.1415H52.3491L52.2827 63.1417L52.2164 63.1415H27.6425V63.0961C20.6197 62.5263 15.0981 56.6464 15.0981 49.4769C15.0981 42.719 20.004 37.1068 26.4486 36.0076C28.0697 30.9564 32.8055 27.3003 38.3953 27.3003C39.9898 27.3003 41.5149 27.5979 42.918 28.1404ZM64.9845 45.2958C66.9992 43.871 68.3149 41.5226 68.3149 38.8675C68.3149 34.5223 64.7924 30.9999 60.4473 30.9999C60.0827 30.9999 59.7247 31.0246 59.3746 31.0722L58.0879 31.2473L57.7304 29.9989C56.8628 26.9696 54.0712 24.7549 50.7663 24.7549C47.9296 24.7549 45.471 26.3864 44.2826 28.7649C47.2529 30.3464 49.512 33.0874 50.4562 36.3839C51.0535 36.3028 51.6632 36.2608 52.2827 36.2608C58.1627 36.2608 63.1607 40.0366 64.9845 45.2958Z"/>
</mask>
<path d="M42.918 28.1404L42.3771 29.5395L43.6573 30.0345L44.2637 28.8031L42.918 28.1404ZM59.1724 29.5859L57.7304 29.9989L58.0879 31.2473L59.3746 31.0722L59.1724 29.5859ZM65.412 46.8127L64.6159 45.5414L63.7208 46.1019L63.9467 47.1336L65.412 46.8127ZM53.1793 63.1123L53.0807 61.6155L51.6793 61.7078V63.1123H53.1793ZM53.1793 63.1415V64.6415H54.6793V63.1415H53.1793ZM52.3491 63.1415L52.3491 61.6415L52.3454 61.6415L52.3491 63.1415ZM52.2827 63.1417L52.2791 64.6417L52.2864 64.6417L52.2827 63.1417ZM52.2164 63.1415L52.22 61.6415H52.2164V63.1415ZM27.6425 63.1415H26.1425V64.6415H27.6425V63.1415ZM27.6425 63.0961H29.1425V61.7129L27.7638 61.601L27.6425 63.0961ZM26.4486 36.0076L26.7008 37.4862L27.5986 37.3331L27.8768 36.466L26.4486 36.0076ZM64.9845 45.2958L63.5673 45.7873L64.2212 47.6729L65.8506 46.5205L64.9845 45.2958ZM59.3746 31.0722L59.1724 29.5859L59.1724 29.5859L59.3746 31.0722ZM58.0879 31.2473L56.6459 31.6603L57.0034 32.9087L58.2902 32.7336L58.0879 31.2473ZM57.7304 29.9989L59.1724 29.5859L59.1724 29.5859L57.7304 29.9989ZM44.2826 28.7649L42.9408 28.0944L42.2875 29.4019L43.5776 30.0889L44.2826 28.7649ZM50.4562 36.3839L49.0142 36.7969L49.3717 38.0451L50.6581 37.8703L50.4562 36.3839ZM44.2637 28.8031C45.4462 26.4019 47.9153 24.7549 50.7663 24.7549V21.7549C46.7291 21.7549 43.2403 24.0907 41.5724 27.4777L44.2637 28.8031ZM50.7663 24.7549C54.0712 24.7549 56.8628 26.9696 57.7304 29.9989L60.6144 29.1729C59.3881 24.891 55.4454 21.7549 50.7663 21.7549V24.7549ZM59.3746 31.0722C59.7247 31.0246 60.0827 30.9999 60.4473 30.9999V27.9999C59.947 27.9999 59.4539 28.0338 58.9702 28.0996L59.3746 31.0722ZM60.4473 30.9999C64.7924 30.9999 68.3149 34.5223 68.3149 38.8675H71.3149C71.3149 32.8655 66.4493 27.9999 60.4473 27.9999V30.9999ZM68.3149 38.8675C68.3149 41.6794 66.8407 44.1482 64.6159 45.5414L66.2081 48.084C69.2719 46.1654 71.3149 42.7556 71.3149 38.8675H68.3149ZM67.2232 49.7013C67.2232 48.6011 67.104 47.527 66.8773 46.4918L63.9467 47.1336C64.1276 47.9593 64.2232 48.8183 64.2232 49.7013H67.2232ZM53.2779 64.609C61.066 64.0961 67.2232 57.6183 67.2232 49.7013H64.2232C64.2232 56.0275 59.3024 61.2058 53.0807 61.6155L53.2779 64.609ZM54.6793 63.1415V63.1123H51.6793V63.1415H54.6793ZM52.3491 64.6415H53.1793V61.6415H52.3491V64.6415ZM52.2864 64.6417L52.3527 64.6415L52.3454 61.6415L52.2791 61.6417L52.2864 64.6417ZM52.2128 64.6415L52.2791 64.6417L52.2864 61.6417L52.22 61.6415L52.2128 64.6415ZM27.6425 64.6415H52.2164V61.6415H27.6425V64.6415ZM26.1425 63.0961V63.1415H29.1425V63.0961H26.1425ZM13.5981 49.4769C13.5981 57.4342 19.726 63.9587 27.5212 64.5912L27.7638 61.601C21.5135 61.0939 16.5981 55.8587 16.5981 49.4769H13.5981ZM26.1964 34.5289C19.0432 35.7491 13.5981 41.9756 13.5981 49.4769H16.5981C16.5981 43.4623 20.9647 38.4646 26.7008 37.4862L26.1964 34.5289ZM38.3953 25.8003C32.1349 25.8003 26.8348 29.8955 25.0204 35.5492L27.8768 36.466C29.3046 32.0173 33.4762 28.8003 38.3953 28.8003V25.8003ZM43.459 26.7414C41.8861 26.1331 40.1778 25.8003 38.3953 25.8003V28.8003C39.8019 28.8003 41.1438 29.0626 42.3771 29.5395L43.459 26.7414ZM65.8506 46.5205C68.2457 44.8267 69.8149 42.0301 69.8149 38.8675H66.8149C66.8149 41.0151 65.7527 42.9154 64.1184 44.0712L65.8506 46.5205ZM69.8149 38.8675C69.8149 33.6939 65.6208 29.4999 60.4473 29.4999V32.4999C63.964 32.4999 66.8149 35.3507 66.8149 38.8675H69.8149ZM60.4473 29.4999C60.0149 29.4999 59.5893 29.5292 59.1724 29.5859L59.5769 32.5585C59.8601 32.52 60.1505 32.4999 60.4473 32.4999V29.4999ZM59.1724 29.5859L57.8857 29.761L58.2902 32.7336L59.5769 32.5585L59.1724 29.5859ZM59.5299 30.8343L59.1724 29.5859L56.2884 30.4119L56.6459 31.6603L59.5299 30.8343ZM59.1724 29.5859C58.1252 25.9296 54.7576 23.2549 50.7663 23.2549V26.2549C53.3848 26.2549 55.6003 28.0096 56.2884 30.4119L59.1724 29.5859ZM50.7663 23.2549C47.3401 23.2549 44.3735 25.2268 42.9408 28.0944L45.6244 29.4353C46.5684 27.5459 48.5192 26.2549 50.7663 26.2549V23.2549ZM51.8982 35.9709C50.8403 32.2772 48.3112 29.2105 44.9876 27.4408L43.5776 30.0889C46.1945 31.4823 48.1838 33.8976 49.0142 36.7969L51.8982 35.9709ZM52.2827 34.7608C51.5955 34.7608 50.9182 34.8073 50.2542 34.8976L50.6581 37.8703C51.1887 37.7982 51.7309 37.7608 52.2827 37.7608V34.7608ZM66.4017 44.8044C64.375 38.9601 58.8212 34.7608 52.2827 34.7608V37.7608C57.5041 37.7608 61.9464 41.1131 63.5673 45.7873L66.4017 44.8044Z" fill="white" mask="url(#path-4-inside-1_280_3009)"/>
</svg>
