<svg width="27" height="27" viewBox="0 0 27 27" fill="none" xmlns="http://www.w3.org/2000/svg">
<g clip-path="url(#clip0_402_1075)">
<path d="M14.625 7.875H12.375V12.375H7.875V14.625H12.375V19.125H14.625V14.625H19.125V12.375H14.625V7.875ZM13.5 2.25C7.30125 2.25 2.25 7.30125 2.25 13.5C2.25 19.6987 7.30125 24.75 13.5 24.75C19.6987 24.75 24.75 19.6987 24.75 13.5C24.75 7.30125 19.6987 2.25 13.5 2.25ZM13.5 22.5C8.53875 22.5 4.5 18.4613 4.5 13.5C4.5 8.53875 8.53875 4.5 13.5 4.5C18.4613 4.5 22.5 8.53875 22.5 13.5C22.5 18.4613 18.4613 22.5 13.5 22.5Z" fill="#F6A745"/>
</g>
<defs>
<clipPath id="clip0_402_1075">
<rect width="27" height="27" fill="white"/>
</clipPath>
</defs>
</svg>
