<svg width="30" height="30" viewBox="0 0 30 30" fill="none" xmlns="http://www.w3.org/2000/svg">
<path d="M16.3926 22.0517C16.1566 21.569 15.6255 20.7845 14.9764 19.7586C13.088 16.7414 10.2554 12.2155 9.19313 8.95689C8.89807 7.99138 8.72101 6.96552 8.54397 6C5.71137 8.23276 4 11.6724 4 15.2931C4 21.75 9.13411 27 15.4484 27C15.9796 27 16.5107 26.9397 17.0418 26.8793C17.1598 26.8793 17.2778 26.819 17.3959 26.7586C17.4549 26.6983 17.5729 26.6983 17.6319 26.6379C17.809 26.4569 17.927 26.1552 17.986 25.9138C18.104 25.1897 17.4549 23.9224 16.8648 22.9569C16.6877 22.5948 16.5697 22.2931 16.3926 22.0517Z" fill="#373737"/>
<path d="M27 14.6012C27 14.2699 27 13.9387 26.9381 13.6074C26.9381 13.5521 26.9381 13.4969 26.9381 13.3865C26.9381 13.2209 26.8762 13.0552 26.8762 12.8896C26.1952 9.46626 23.6571 6.53988 20.1286 5.04908C19.0143 4.66258 17.8381 4.33129 16.7238 4.11043C16.2286 4.05521 15.6714 4 15.1762 4C14.8667 4 14.4953 4.05521 14.1857 4.11043C14.1238 4.27607 14.0619 4.44172 14.0619 4.44172C14 4.49693 13.9381 4.71779 14.1238 5.54601C14.9905 8.80368 18.0857 13 20.6238 16.4233L20.9952 16.9202C22.1714 18.5215 23.1 20.1779 23.781 22C25.8238 20.0123 27 17.362 27 14.6012Z" fill="#373737"/>
<path d="M19.4457 18.3165L19.1182 17.7939C16.8804 14.1358 14.0967 9.60664 13.2235 6.00655C13.0597 5.2517 12.9505 4.38071 13.3872 3.80005C13.7693 3.27745 14.4242 3.10326 15.5158 3.10326C16.0071 3.10326 16.4437 3.16132 16.9349 3.27745C15.7342 2.5226 14.3696 2.05807 12.9506 2C12.6776 2 12.4047 2.05807 12.1318 2.11614C11.3677 2.29034 10.7673 2.75486 10.3853 3.45165C9.78487 4.61297 9.89403 6.41301 10.6582 8.85178C11.586 11.8712 14.1513 16.11 15.8433 18.9552C16.4437 20.0004 16.9349 20.7553 17.1533 21.2779C17.2624 21.5101 17.4262 21.8005 17.5899 22.0908C18.2995 23.3683 19.1182 24.7618 18.7361 25.9812C18.5178 26.6199 18.0266 27.0845 17.4262 27.2587C16.7712 27.4909 16.0071 27.6651 15.2975 27.6071C15.0246 27.6071 14.7517 27.6071 14.4788 27.549C16.4983 28.1877 18.8453 28.1297 20.1552 27.4909C21.5197 26.9103 22.2839 25.3425 21.9018 23.8328C21.6289 22.265 20.8102 20.465 19.4457 18.3165Z" fill="#8A8A8A"/>
</svg>
