<svg width="30" height="30" viewBox="0 0 30 30" fill="none" xmlns="http://www.w3.org/2000/svg">
<g clip-path="url(#clip0_123_2460)">
<path d="M27.2377 21.325L20.3002 14.3875L22.2627 12.425L17.5752 7.73745L15.6127 9.69995L8.6752 2.76245L2.7627 8.67495L9.7002 15.6125L3.7502 21.5625V26.25H8.4377L14.3877 20.3L21.3252 27.2375L27.2377 21.325ZM11.4752 13.8375L6.3002 8.67495L8.6752 6.29995L10.2627 7.88745L8.7752 9.37495L10.5377 11.1375L12.0252 9.64995L13.8377 11.4625L11.4752 13.8375ZM16.1627 18.525L18.5377 16.15L20.3502 17.9625L18.8627 19.45L20.6252 21.2125L22.1127 19.725L23.7002 21.3125L21.3252 23.6875L16.1627 18.525Z" fill="#373737"/>
<path d="M22.0896 3.23058L18.9165 6.40369L23.601 11.0882L26.7742 7.91511L22.0896 3.23058Z" fill="#373737"/>
</g>
<defs>
<clipPath id="clip0_123_2460">
<rect width="30" height="30" fill="white"/>
</clipPath>
</defs>
</svg>
