<svg width="27" height="27" viewBox="0 0 27 27" fill="none" xmlns="http://www.w3.org/2000/svg">
<g clip-path="url(#clip0_666_2395)">
<path d="M7.875 12.375V14.625H19.125V12.375H7.875ZM13.5 2.25C7.29 2.25 2.25 7.29 2.25 13.5C2.25 19.71 7.29 24.75 13.5 24.75C19.71 24.75 24.75 19.71 24.75 13.5C24.75 7.29 19.71 2.25 13.5 2.25ZM13.5 22.5C8.53875 22.5 4.5 18.4612 4.5 13.5C4.5 8.53875 8.53875 4.5 13.5 4.5C18.4612 4.5 22.5 8.53875 22.5 13.5C22.5 18.4612 18.4612 22.5 13.5 22.5Z" fill="#F6A745"/>
</g>
<defs>
<clipPath id="clip0_666_2395">
<rect width="27" height="27" fill="white"/>
</clipPath>
</defs>
</svg>
