<svg width="97" height="97" viewBox="0 0 97 97" fill="none" xmlns="http://www.w3.org/2000/svg">
<g clip-path="url(#clip0_91_2277)">
<path d="M26.8133 43.66C32.5733 54.98 41.8533 64.22 53.1733 70.02L61.9733 61.22C63.0533 60.14 64.6533 59.78 66.0533 60.26C70.5333 61.74 75.3733 62.54 80.3333 62.54C82.5333 62.54 84.3333 64.34 84.3333 66.54V80.5C84.3333 82.7 82.5333 84.5 80.3333 84.5C42.7733 84.5 12.3333 54.06 12.3333 16.5C12.3333 14.3 14.1333 12.5 16.3333 12.5H30.3333C32.5333 12.5 34.3333 14.3 34.3333 16.5C34.3333 21.5 35.1333 26.3 36.6133 30.78C37.0533 32.18 36.7333 33.74 35.6133 34.86L26.8133 43.66Z" fill="white"/>
</g>
<defs>
<clipPath id="clip0_91_2277">
<rect width="96" height="96" fill="white" transform="translate(0.333252 0.5)"/>
</clipPath>
</defs>
</svg>
