<svg width="97" height="90" viewBox="0 0 97 90" fill="none" xmlns="http://www.w3.org/2000/svg">
<circle cx="44.84" cy="44.84" r="44.84" fill="#0F2C65"/>
<circle opacity="0.5" cx="52.1603" cy="44.84" r="44.84" fill="#0F2C65"/>
<circle cx="17.3606" cy="62.1179" r="1.96896" stroke="white" stroke-width="1.5"/>
<path d="M18.5254 60.5642C20.8559 56.4211 16.0081 46.0968 33.6182 41.9532C40.7874 40.2664 41.1424 36.7373 39.944 29.3017C36.992 19.1805 46.5362 18.2816 59.898 25.1178C73.2597 31.9541 71.7393 41.661 70.5741 45.0273" stroke="white" stroke-width="1.5"/>
<circle cx="70.9631" cy="43.4736" r="1.96896" fill="#003B80" stroke="white" stroke-width="1.5"/>
<circle cx="41.8205" cy="22.321" r="1.96896" fill="#003B80" stroke="white" stroke-width="1.5"/>
<path d="M23.5887 34.8402L34.8843 30.5669L34.4626 46.1704L18.0156 50.8093L23.5887 34.8402Z" fill="#003B80" stroke="white" stroke-width="1.5" stroke-linejoin="round"/>
<path d="M34.0409 46.5922L23.1045 26.3499L18.0156 50.8094" stroke="white" stroke-width="1.5" stroke-linejoin="round"/>
<path d="M34.8842 30.567L23.0762 26.3499" stroke="white" stroke-width="1.5" stroke-linejoin="round"/>
<path d="M23.9196 34.7842L23.0762 26.3499" stroke="white" stroke-width="1.5"/>
<path d="M42.4746 23.8193C44.5832 42.7966 66.0907 50.8092 43.318 63.4607" stroke="white" stroke-width="1.5"/>
<circle cx="40.9768" cy="64.4929" r="1.96896" fill="#003B80" stroke="white" stroke-width="1.5"/>
<path d="M53.0175 27.1931L71.9469 29.7638L61.9458 49.6974L42.4746 43.6401L53.0175 27.1931Z" fill="#003B80" stroke="white" stroke-width="1.5" stroke-linejoin="round"/>
<path d="M61.9801 49.6972L48.0681 18.7585L42.4746 43.6398" stroke="white" stroke-width="1.5" stroke-linejoin="round"/>
<path d="M71.9471 29.7636L48.0684 18.7585" stroke="white" stroke-width="1.5" stroke-linejoin="round"/>
<path d="M53.4395 27.1929L48.3789 18.7585" stroke="white" stroke-width="1.5"/>
</svg>
